<svg xmlns="http://www.w3.org/2000/svg" viewBox="0 0 166.49 41.43"><defs><style>.cls-1{fill:#fff;}.cls-2,.cls-3{fill:none;stroke:#fff;stroke-miterlimit:10;}.cls-2{stroke-width:3px;}</style></defs><g id="Layer_2" data-name="Layer 2"><g id="Layer_1-2" data-name="Layer 1"><path class="cls-1" d="M50.49,16.35c.84,0,1.21.34,1.21,1.2v1.34c0,.83-.37,1.2-1.21,1.2h-2.3a.82.82,0,0,0-.9.93v.5h3.64c.83,0,1.2.37,1.2,1.2v4.94c0,.83-.37,1.2-1.2,1.2H44.19c-.83,0-1.2-.37-1.2-1.2V21.39c0-3.4,1.93-5,4.94-5Z"/><path class="cls-1" d="M64.1,40.37c-5.6,0-8.2-2.17-8.2-6.81V23.19c0-4.67,2.6-6.84,8.2-6.84h8.14c.83,0,1.2.37,1.2,1.2v4c0,.83-.37,1.2-1.2,1.2h-6.7c-1.41,0-2,.53-2,1.67V32.4c0,1.1.63,1.6,2,1.6h6.7c.83,0,1.2.36,1.2,1.2v4c0,.83-.37,1.2-1.2,1.2Z"/><path class="cls-1" d="M78.41,40.37c-.84,0-1.2-.37-1.2-1.2V17.55c0-.83.36-1.2,1.2-1.2h5.17c.83,0,1.2.37,1.2,1.2V34.06h4.57v-5.4c0-.83.37-1.2,1.2-1.2h4.84c.83,0,1.2.37,1.2,1.2V39.17c0,.83-.37,1.2-1.2,1.2Z"/><path class="cls-1" d="M110.39,40.87c-8.34,0-10.37-2.74-10.37-6.81V22.69c0-4.07,2-6.84,10.37-6.84s10.34,2.77,10.34,6.84V34.06C120.73,38.13,118.73,40.87,110.39,40.87Zm0-6.44c2.44,0,2.8-.67,2.8-1.57v-9c0-.87-.36-1.53-2.8-1.53s-2.8.66-2.8,1.53v9C107.59,33.76,108,34.43,110.39,34.43Z"/><path class="cls-1" d="M132.8,40.37c-5.6,0-8.2-2.17-8.2-6.81V23.19c0-4.67,2.6-6.84,8.2-6.84h8.14c.84,0,1.2.37,1.2,1.2v4c0,.83-.36,1.2-1.2,1.2h-6.7c-1.4,0-2,.53-2,1.67V32.4c0,1.1.64,1.6,2,1.6h6.7c.84,0,1.2.36,1.2,1.2v4c0,.83-.36,1.2-1.2,1.2Z"/><path class="cls-1" d="M147.11,40.37c-.83,0-1.2-.37-1.2-1.2V17.55c0-.83.37-1.2,1.2-1.2h5.17c.83,0,1.2.37,1.2,1.2v7.67h1.33l3.44-7.77a1.56,1.56,0,0,1,1.67-1.1h5.13c.77,0,1,.4.74,1.1l-3.4,7.77a4.18,4.18,0,0,1,4.1,4.54v9.41c0,.83-.37,1.2-1.2,1.2h-5.14c-.83,0-1.2-.37-1.2-1.2V32.66a1,1,0,0,0-1.07-1.13h-4.4v7.64c0,.83-.37,1.2-1.2,1.2Z"/><circle class="cls-2" cx="20.72" cy="20.72" r="19.22"/><path class="cls-1" d="M45.12,11.31c-.37,0-.53-.16-.53-.53V3.64H42.45c-.36,0-.52-.16-.52-.52V1.36c0-.36.16-.52.52-.52h7.68c.37,0,.53.16.53.52V3.12c0,.36-.16.52-.53.52H48v7.14c0,.37-.16.53-.52.53Z"/><path class="cls-1" d="M52.59,11.31c-.37,0-.53-.16-.53-.53V1.36c0-.36.16-.52.53-.52h2.25c.36,0,.52.16.52.52V4.52h2.43V1.36c0-.36.16-.52.52-.52h2.26c.36,0,.52.16.52.52v9.42c0,.37-.16.53-.52.53H58.31c-.36,0-.52-.16-.52-.53V7.56H55.36v3.22c0,.37-.16.53-.52.53Z"/><path class="cls-1" d="M63.62,11.31c-.37,0-.53-.16-.53-.53V1.36c0-.36.16-.52.53-.52h6.74c.37,0,.53.16.53.52v1.7c0,.37-.16.53-.53.53h-4V4.71h2.84c.36,0,.52.16.52.52V6.79c0,.36-.16.52-.52.52H66.35V8.56h4c.37,0,.53.16.53.52v1.7c0,.37-.16.53-.53.53Z"/><path class="cls-1" d="M73.12,11.31c-.36,0-.52-.16-.52-.53V1.36c0-.36.16-.52.52-.52h6.75c.36,0,.52.16.52.52v1.7c0,.37-.16.53-.52.53h-4V4.71h2.83c.36,0,.53.16.53.52V6.79c0,.36-.17.52-.53.52H75.86V8.56h4c.36,0,.52.16.52.52v1.7c0,.37-.16.53-.52.53Z"/><path class="cls-1" d="M87.82,11.31c-.37,0-.53-.16-.53-.53V3.64H85.16c-.37,0-.53-.16-.53-.52V1.36c0-.36.16-.52.53-.52h7.67c.37,0,.53.16.53.52V3.12c0,.36-.16.52-.53.52H90.7v7.14c0,.37-.16.53-.53.53Z"/><path class="cls-1" d="M95.29,11.31c-.37,0-.53-.16-.53-.53V1.36c0-.36.16-.52.53-.52h2.25c.36,0,.52.16.52.52V4.52h2.43V1.36c0-.36.16-.52.53-.52h2.25c.36,0,.52.16.52.52v9.42c0,.37-.16.53-.52.53H101c-.37,0-.53-.16-.53-.53V7.56H98.06v3.22c0,.37-.16.53-.52.53Z"/><path class="cls-1" d="M106.32,11.31c-.37,0-.53-.16-.53-.53V1.36c0-.36.16-.52.53-.52h4.84c2.18,0,2.86,1,2.86,2.43v.67c0,.81-.2,1.39-.81,1.65A1.94,1.94,0,0,1,115,7.7v3.08c0,.37-.16.53-.52.53h-2.26c-.36,0-.52-.16-.52-.53V8.56c0-.44-.15-.63-.55-.63h-2v2.85c0,.37-.16.53-.52.53Zm2.76-6h1.09c.51,0,.64-.29.64-.69V4.14c0-.39-.13-.68-.64-.68h-1.09Z"/><path class="cls-1" d="M117.12,11.31c-.37,0-.53-.16-.53-.53V1.36c0-.36.16-.52.53-.52h6.74c.37,0,.53.16.53.52v1.7c0,.37-.16.53-.53.53h-4V4.71h2.84c.36,0,.52.16.52.52V6.79c0,.36-.16.52-.52.52h-2.84V8.56h4c.37,0,.53.16.53.52v1.7c0,.37-.16.53-.53.53Z"/><path class="cls-1" d="M126.62,11.31c-.36,0-.52-.16-.52-.53V1.36c0-.36.16-.52.52-.52h6.75c.36,0,.52.16.52.52v1.7c0,.37-.16.53-.52.53h-4V4.71h2.83c.37,0,.53.16.53.52V6.79c0,.36-.16.52-.53.52h-2.83V8.56h4c.36,0,.52.16.52.52v1.7c0,.37-.16.53-.52.53Z"/><line class="cls-3" x1="20.06" y1="21.03" x2="20.06" y2="9.97"/><line class="cls-3" x1="19.56" y1="21.33" x2="27.6" y2="21.33"/><path class="cls-1" d="M18.17,8.6c-.13,0-.18,0-.18-.18v-.6c0-.13.05-.18.18-.18h.56V6h-.46c-.13,0-.18,0-.18-.18v-.6c0-.13.05-.18.18-.18h1.45c.12,0,.18,0,.18.18V7.64h.48c.12,0,.18.05.18.18v.6c0,.13-.06.18-.18.18Z"/><path class="cls-1" d="M21.13,8.6c-.12,0-.18,0-.18-.18V7.56c0-.78.33-1,.79-1.1l.67-.21c.1,0,.13-.07.13-.18s0-.13-.13-.13H21.32c-.12,0-.18-.05-.18-.18V5.18c0-.13.06-.18.18-.18H22.8a.77.77,0,0,1,.88.83V6.3c0,.5-.3.73-.78.88l-.68.22c-.1,0-.13,0-.13.15v.11h1.42c.13,0,.18,0,.18.18v.58c0,.13-.05.18-.18.18Z"/><path class="cls-1" d="M36,22c.16,0,.19-.07.19-.15v-.13c0-.08,0-.15-.19-.15h-.85c-.13,0-.19-.05-.19-.18v-.53c0-.13.06-.18.19-.18h.52c.16,0,.19-.07.19-.15v-.08c0-.08,0-.15-.19-.15h-.93c-.13,0-.18-.05-.18-.18v-.6c0-.12,0-.18.18-.18h1.4c.55,0,.82.28.82.72v.29a.51.51,0,0,1-.3.54c.48.06.63.29.63.73v.5c0,.51-.33.83-1,.83H34.77c-.13,0-.18-.06-.18-.18V22.2c0-.12,0-.18.18-.18Z"/><path class="cls-1" d="M19.45,36V34.39c0-.62.29-1,1.23-1h1.15c.13,0,.18,0,.18.18v.59c0,.13-.05.18-.18.18H20.9c-.25,0-.32.06-.32.3v.11a2.22,2.22,0,0,1,.64-.07c.9,0,1.17.3,1.17.9V36c0,.61-.29,1-1.44,1S19.45,36.64,19.45,36ZM20.58,36c0,.1.05.18.34.18s.34-.08.34-.18v-.3c0-.1,0-.18-.34-.18s-.34.08-.34.18Z"/><path class="cls-1" d="M4.77,23c-.13,0-.18-.06-.18-.18V22.2c0-.13.06-.18.18-.18h.94C6,22,6,22,6,21.72v-.11a2.22,2.22,0,0,1-.64.07c-.91,0-1.18-.3-1.18-.9V20.3c0-.61.29-1,1.45-1s1.5.4,1.5,1v1.64c0,.61-.29,1-1.23,1ZM6,20.38c0-.1,0-.18-.34-.18s-.34.08-.34.18v.3c0,.1,0,.18.34.18s.34-.08.34-.18Z"/></g></g></svg>